{
  "accessors": [
    {
      "bufferView": 2,
      "componentType": 5126,
      "count": 25,
      "max": [
        1.0,
        0.044321008026599884,
        0.999988853931427
      ],
      "min": [
        -1.0,
        0.044321008026599884,
        -1.0000094175338745
      ],
      "type": "VEC3"
    },
    {
      "bufferView": 2,
      "byteOffset": 300,
      "componentType": 5126,
      "count": 25,
      "max": [
        0.0,
        1.0,
        1.6429796190209345e-08
      ],
      "min": [
        0.0,
        1.0,
        -1.1261493959580093e-08
      ],
      "type": "VEC3"
    },
    {
      "bufferView": 1,
      "componentType": 5126,
      "count": 25,
      "max": [
        0.9999999403953552,
        1.0
      ],
      "min": [
        -0.0,
        0.0
      ],
      "type": "VEC2"
    },
    {
      "bufferView": 1,
      "byteOffset": 200,
      "componentType": 5126,
      "count": 25,
      "max": [
        0.9999999403953552,
        1.0
      ],
      "min": [
        -0.0,
        0.0
      ],
      "type": "VEC2"
    },
    {
      "bufferView": 1,
      "byteOffset": 400,
      "componentType": 5126,
      "count": 25,
      "max": [
        0.9999999403953552,
        1.0
      ],
      "min": [
        -0.0,
        0.0
      ],
      "type": "VEC2"
    },
    {
      "bufferView": 0,
      "componentType": 5125,
      "count": 96,
      "type": "SCALAR"
    },
    {
      "bufferView": 2,
      "byteOffset": 600,
      "componentType": 5126,
      "count": 65,
      "max": [
        1.0,
        0.044321008026599884,
        0.999988853931427
      ],
      "min": [
        -1.0,
        0.0,
        -1.0000094175338745
      ],
      "type": "VEC3"
    },
    {
      "bufferView": 2,
      "byteOffset": 1380,
      "componentType": 5126,
      "count": 65,
      "max": [
        1.0,
        1.7850858284873539e-06,
        1.0
      ],
      "min": [
        -1.0,
        -1.0,
        -1.0
      ],
      "type": "VEC3"
    },
    {
      "bufferView": 1,
      "byteOffset": 600,
      "componentType": 5126,
      "count": 65,
      "max": [
        7.625818252563477,
        1.0
      ],
      "min": [
        -1.06325101852417,
        0.0
      ],
      "type": "VEC2"
    },
    {
      "bufferView": 1,
      "byteOffset": 1120,
      "componentType": 5126,
      "count": 65,
      "max": [
        7.625818252563477,
        1.0
      ],
      "min": [
        -1.06325101852417,
        0.0
      ],
      "type": "VEC2"
    },
    {
      "bufferView": 1,
      "byteOffset": 1640,
      "componentType": 5126,
      "count": 65,
      "max": [
        7.625818252563477,
        1.0
      ],
      "min": [
        -1.06325101852417,
        0.0
      ],
      "type": "VEC2"
    },
    {
      "bufferView": 0,
      "byteOffset": 384,
      "componentType": 5125,
      "count": 192,
      "type": "SCALAR"
    },
    {
      "bufferView": 2,
      "byteOffset": 2160,
      "componentType": 5126,
      "count": 24,
      "max": [
        0.6108184456825256,
        1.0782743692398071,
        0.6807098388671875
      ],
      "min": [
        -0.6595718860626221,
        -0.04296662658452988,
        -0.5890053510665894
      ],
      "type": "VEC3"
    },
    {
      "bufferView": 2,
      "byteOffset": 2448,
      "componentType": 5126,
      "count": 24,
      "max": [
        0.944503664970398,
        0.030266648158431053,
        0.9446917176246643
      ],
      "min": [
        -0.9445042014122009,
        -0.030266614630818367,
        -0.9446921944618225
      ],
      "type": "VEC3"
    },
    {
      "bufferView": 1,
      "byteOffset": 2160,
      "componentType": 5126,
      "count": 24,
      "max": [
        0.9918190240859985,
        0.9134540557861328
      ],
      "min": [
        -0.003136487677693367,
        0.0
      ],
      "type": "VEC2"
    },
    {
      "bufferView": 0,
      "byteOffset": 1152,
      "componentType": 5125,
      "count": 48,
      "type": "SCALAR"
    },
    {
      "bufferView": 2,
      "byteOffset": 2736,
      "componentType": 5126,
      "count": 24,
      "max": [
        0.6108184456825256,
        1.0782743692398071,
        0.6807098388671875
      ],
      "min": [
        -0.6595718860626221,
        -0.04296662658452988,
        -0.5890053510665894
      ],
      "type": "VEC3"
    },
    {
      "bufferView": 2,
      "byteOffset": 3024,
      "componentType": 5126,
      "count": 24,
      "max": [
        0.944503664970398,
        0.030266648158431053,
        0.9446917176246643
      ],
      "min": [
        -0.9445042014122009,
        -0.030266614630818367,
        -0.9446921944618225
      ],
      "type": "VEC3"
    },
    {
      "bufferView": 1,
      "byteOffset": 2352,
      "componentType": 5126,
      "count": 24,
      "max": [
        0.9918190240859985,
        0.9134540557861328
      ],
      "min": [
        -0.003136487677693367,
        0.0
      ],
      "type": "VEC2"
    },
    {
      "bufferView": 0,
      "byteOffset": 1344,
      "componentType": 5125,
      "count": 48,
      "type": "SCALAR"
    },
    {
      "bufferView": 2,
      "byteOffset": 3312,
      "componentType": 5126,
      "count": 24,
      "max": [
        0.6108184456825256,
        1.0782743692398071,
        0.6807098388671875
      ],
      "min": [
        -0.6595718860626221,
        -0.04296662658452988,
        -0.5890053510665894
      ],
      "type": "VEC3"
    },
    {
      "bufferView": 2,
      "byteOffset": 3600,
      "componentType": 5126,
      "count": 24,
      "max": [
        0.944503664970398,
        0.030266648158431053,
        0.9446917176246643
      ],
      "min": [
        -0.9445042014122009,
        -0.030266614630818367,
        -0.9446921944618225
      ],
      "type": "VEC3"
    },
    {
      "bufferView": 1,
      "byteOffset": 2544,
      "componentType": 5126,
      "count": 24,
      "max": [
        0.9918190240859985,
        0.9134540557861328
      ],
      "min": [
        -0.003136487677693367,
        0.0
      ],
      "type": "VEC2"
    },
    {
      "bufferView": 0,
      "byteOffset": 1536,
      "componentType": 5125,
      "count": 48,
      "type": "SCALAR"
    },
    {
      "bufferView": 2,
      "byteOffset": 3888,
      "componentType": 5126,
      "count": 24,
      "max": [
        0.6108184456825256,
        1.0782743692398071,
        0.6807098388671875
      ],
      "min": [
        -0.6595718860626221,
        -0.04296662658452988,
        -0.5890053510665894
      ],
      "type": "VEC3"
    },
    {
      "bufferView": 2,
      "byteOffset": 4176,
      "componentType": 5126,
      "count": 24,
      "max": [
        0.944503664970398,
        0.030266648158431053,
        0.9446917176246643
      ],
      "min": [
        -0.9445042014122009,
        -0.030266614630818367,
        -0.9446921944618225
      ],
      "type": "VEC3"
    },
    {
      "bufferView": 1,
      "byteOffset": 2736,
      "componentType": 5126,
      "count": 24,
      "max": [
        0.9918190240859985,
        0.9134540557861328
      ],
      "min": [
        -0.003136487677693367,
        0.0
      ],
      "type": "VEC2"
    },
    {
      "bufferView": 0,
      "byteOffset": 1728,
      "componentType": 5125,
      "count": 48,
      "type": "SCALAR"
    },
    {
      "bufferView": 2,
      "byteOffset": 4464,
      "componentType": 5126,
      "count": 24,
      "max": [
        0.6108184456825256,
        1.0782743692398071,
        0.6807098388671875
      ],
      "min": [
        -0.6595718860626221,
        -0.04296662658452988,
        -0.5890053510665894
      ],
      "type": "VEC3"
    },
    {
      "bufferView": 2,
      "byteOffset": 4752,
      "componentType": 5126,
      "count": 24,
      "max": [
        0.944503664970398,
        0.030266648158431053,
        0.9446917176246643
      ],
      "min": [
        -0.9445042014122009,
        -0.030266614630818367,
        -0.9446921944618225
      ],
      "type": "VEC3"
    },
    {
      "bufferView": 1,
      "byteOffset": 2928,
      "componentType": 5126,
      "count": 24,
      "max": [
        0.9918190240859985,
        0.9134540557861328
      ],
      "min": [
        -0.003136487677693367,
        0.0
      ],
      "type": "VEC2"
    },
    {
      "bufferView": 0,
      "byteOffset": 1920,
      "componentType": 5125,
      "count": 48,
      "type": "SCALAR"
    }
  ],
  "asset": {
    "extras": {
      "author": "pooiloui2 (https://sketchfab.com/pooiloui2)",
      "license": "CC-BY-4.0 (http://creativecommons.org/licenses/by/4.0/)",
      "source": "https://sketchfab.com/3d-models/grass-lawn-7b7ef2ff56e041d1bcc2b330ea8b1f19",
      "title": "Grass Lawn"
    },
    "generator": "Sketchfab-12.68.0",
    "version": "2.0"
  },
  "bufferViews": [
    {
      "buffer": 0,
      "byteLength": 2112,
      "name": "floatBufferViews",
      "target": 34963
    },
    {
      "buffer": 0,
      "byteLength": 3120,
      "byteOffset": 2112,
      "byteStride": 8,
      "name": "floatBufferViews",
      "target": 34962
    },
    {
      "buffer": 0,
      "byteLength": 5040,
      "byteOffset": 5232,
      "byteStride": 12,
      "name": "floatBufferViews",
      "target": 34962
    }
  ],
  "buffers": [
    {
      "byteLength": 10272,
      "uri": "scene.bin"
    }
  ],
  "extensionsRequired": [
    "KHR_materials_pbrSpecularGlossiness"
  ],
  "extensionsUsed": [
    "KHR_materials_pbrSpecularGlossiness"
  ],
  "images": [
    {
      "uri": "textures/material_diffuse.png"
    },
    {
      "uri": "textures/material_specularGlossiness.png"
    },
    {
      "uri": "textures/material_1_diffuse.png"
    },
    {
      "uri": "textures/material_1_specularGlossiness.png"
    },
    {
      "uri": "textures/material_2_diffuse.png"
    }
  ],
  "materials": [
    {
      "doubleSided": true,
      "extensions": {
        "KHR_materials_pbrSpecularGlossiness": {
          "diffuseFactor": [
            1.0,
            1.0,
            1.0,
            1.0
          ],
          "diffuseTexture": {
            "index": 0
          },
          "glossinessFactor": 1.0,
          "specularFactor": [
            1.0,
            1.0,
            1.0
          ],
          "specularGlossinessTexture": {
            "index": 1
          }
        }
      },
      "name": "material"
    },
    {
      "doubleSided": true,
      "extensions": {
        "KHR_materials_pbrSpecularGlossiness": {
          "diffuseFactor": [
            1.0,
            1.0,
            1.0,
            1.0
          ],
          "diffuseTexture": {
            "index": 2
          },
          "glossinessFactor": 1.0,
          "specularFactor": [
            1.0,
            1.0,
            1.0
          ],
          "specularGlossinessTexture": {
            "index": 3
          }
        }
      },
      "name": "material_1"
    },
    {
      "alphaMode": "MASK",
      "doubleSided": true,
      "extensions": {
        "KHR_materials_pbrSpecularGlossiness": {
          "diffuseFactor": [
            1.0,
            1.0,
            1.0,
            1.0
          ],
          "diffuseTexture": {
            "index": 4
          },
          "glossinessFactor": 0.0,
          "specularFactor": [
            0.0,
            0.0,
            0.0
          ]
        }
      },
      "name": "material_2"
    }
  ],
  "meshes": [
    {
      "name": "Object_0",
      "primitives": [
        {
          "attributes": {
            "NORMAL": 1,
            "POSITION": 0,
            "TEXCOORD_0": 2,
            "TEXCOORD_1": 3,
            "TEXCOORD_2": 4
          },
          "indices": 5,
          "material": 0,
          "mode": 4
        }
      ]
    },
    {
      "name": "Object_1",
      "primitives": [
        {
          "attributes": {
            "NORMAL": 7,
            "POSITION": 6,
            "TEXCOORD_0": 8,
            "TEXCOORD_1": 9,
            "TEXCOORD_2": 10
          },
          "indices": 11,
          "material": 1,
          "mode": 4
        }
      ]
    },
    {
      "name": "Object_2",
      "primitives": [
        {
          "attributes": {
            "NORMAL": 13,
            "POSITION": 12,
            "TEXCOORD_0": 14
          },
          "indices": 15,
          "material": 2,
          "mode": 4
        }
      ]
    },
    {
      "name": "Object_3",
      "primitives": [
        {
          "attributes": {
            "NORMAL": 17,
            "POSITION": 16,
            "TEXCOORD_0": 18
          },
          "indices": 19,
          "material": 2,
          "mode": 4
        }
      ]
    },
    {
      "name": "Object_4",
      "primitives": [
        {
          "attributes": {
            "NORMAL": 21,
            "POSITION": 20,
            "TEXCOORD_0": 22
          },
          "indices": 23,
          "material": 2,
          "mode": 4
        }
      ]
    },
    {
      "name": "Object_5",
      "primitives": [
        {
          "attributes": {
            "NORMAL": 25,
            "POSITION": 24,
            "TEXCOORD_0": 26
          },
          "indices": 27,
          "material": 2,
          "mode": 4
        }
      ]
    },
    {
      "name": "Object_6",
      "primitives": [
        {
          "attributes": {
            "NORMAL": 29,
            "POSITION": 28,
            "TEXCOORD_0": 30
          },
          "indices": 31,
          "material": 2,
          "mode": 4
        }
      ]
    }
  ],
  "nodes": [
    {
      "children": [
        1
      ],
      "matrix": [
        1.0,
        0.0,
        0.0,
        0.0,
        0.0,
        2.220446049250313e-16,
        -1.0,
        0.0,
        0.0,
        1.0,
        2.220446049250313e-16,
        0.0,
        0.0,
        0.0,
        0.0,
        1.0
      ],
      "name": "Sketchfab_model"
    },
    {
      "children": [
        2
      ],
      "name": "root"
    },
    {
      "children": [
        3
      ],
      "matrix": [
        1.0,
        0.0,
        0.0,
        0.0,
        0.0,
        2.220446049250313e-16,
        1.0,
        0.0,
        0.0,
        -1.0,
        2.220446049250313e-16,
        0.0,
        0.0,
        0.0,
        0.0,
        1.0
      ],
      "name": "GLTF_SceneRootNode"
    },
    {
      "children": [
        4,
        9,
        11,
        13,
        15,
        17
      ],
      "name": "root_2"
    },
    {
      "children": [
        5,
        7
      ],
      "matrix": [
        0.0010000000474974513,
        0.0,
        0.0,
        0.0,
        0.0,
        0.0010000000474974513,
        0.0,
        0.0,
        0.0,
        0.0,
        0.0010000000474974513,
        0.0,
        -0.005735490936785936,
        -0.1543269157409668,
        0.0,
        1.0
      ],
      "name": "node_id35_3"
    },
    {
      "children": [
        6
      ],
      "matrix": [
        256.0,
        0.0,
        0.0,
        0.0,
        0.0,
        256.0,
        0.0,
        0.0,
        0.0,
        0.0,
        256.0,
        0.0,
        -0.00010673798533389345,
        -5.673089027404785,
        256.00262451171875,
        1.0
      ],
      "name": "node_id31_1"
    },
    {
      "mesh": 0,
      "name": "Object_6"
    },
    {
      "children": [
        8
      ],
      "matrix": [
        256.0,
        0.0,
        0.0,
        0.0,
        0.0,
        256.0,
        0.0,
        0.0,
        0.0,
        0.0,
        256.0,
        0.0,
        -0.00010673798533389345,
        -5.673089027404785,
        256.00262451171875,
        1.0
      ],
      "name": "node_id33_5"
    },
    {
      "mesh": 1,
      "name": "Object_8"
    },
    {
      "children": [
        10
      ],
      "matrix": [
        0.0999511182308197,
        0.0,
        0.0,
        0.0,
        0.0,
        0.0999511182308197,
        0.0,
        0.0,
        0.0,
        0.0,
        0.0999511182308197,
        0.0,
        -0.17894627153873444,
        -0.15570545196533203,
        0.4298960566520691,
        1.0
      ],
      "name": "node_id46_6"
    },
    {
      "mesh": 2,
      "name": "Object_10"
    },
    {
      "children": [
        12
      ],
      "matrix": [
        0.0999511182308197,
        0.0,
        0.0,
        0.0,
        0.0,
        0.0999511182308197,
        0.0,
        0.0,
        0.0,
        0.0,
        0.0999511182308197,
        0.0,
        0.08024141937494278,
        -0.15570545196533203,
        0.05739797651767731,
        1.0
      ],
      "name": "node_id54_7"
    },
    {
      "mesh": 3,
      "name": "Object_12"
    },
    {
      "children": [
        14
      ],
      "matrix": [
        0.0999511182308197,
        0.0,
        0.0,
        0.0,
        0.0,
        0.0999511182308197,
        0.0,
        0.0,
        0.0,
        0.0,
        0.0999511182308197,
        0.0,
        -0.019638529047369957,
        -0.15570545196533203,
        0.2900295853614807,
        1.0
      ],
      "name": "node_id58_8"
    },
    {
      "mesh": 4,
      "name": "Object_14"
    },
    {
      "children": [
        16
      ],
      "matrix": [
        0.0999511182308197,
        0.0,
        0.0,
        0.0,
        0.0,
        0.0999511182308197,
        0.0,
        0.0,
        0.0,
        0.0,
        0.0999511182308197,
        0.0,
        -0.17894627153873444,
        -0.15570545196533203,
        0.2595439851284027,
        1.0
      ],
      "name": "node_id60_4"
    },
    {
      "mesh": 5,
      "name": "Object_16"
    },
    {
      "children": [
        18
      ],
      "matrix": [
        0.0999511182308197,
        0.0,
        0.0,
        0.0,
        0.0,
        0.0999511182308197,
        0.0,
        0.0,
        0.0,
        0.0,
        0.0999511182308197,
        0.0,
        0.13581423461437225,
        -0.15570545196533203,
        0.44382622838020325,
        1.0
      ],
      "name": "node_id62_0"
    },
    {
      "mesh": 6,
      "name": "Object_18"
    }
  ],
  "samplers": [
    {
      "magFilter": 9729,
      "minFilter": 9987,
      "wrapS": 10497,
      "wrapT": 10497
    }
  ],
  "scene": 0,
  "scenes": [
    {
      "name": "Sketchfab_Scene",
      "nodes": [
        0
      ]
    }
  ],
  "textures": [
    {
      "sampler": 0,
      "source": 0
    },
    {
      "sampler": 0,
      "source": 1
    },
    {
      "sampler": 0,
      "source": 2
    },
    {
      "sampler": 0,
      "source": 3
    },
    {
      "sampler": 0,
      "source": 4
    }
  ]
}
